<mxfile host="app.diagrams.net" modified="2024-04-20T19:01:59.101Z" agent="Mozilla/5.0 (Windows NT 10.0; Win64; x64) AppleWebKit/537.36 (KHTML, like Gecko) Chrome/123.0.0.0 Safari/537.36" etag="jf-VkfQv8aM4g5TygkEc" version="24.2.5" type="github">
  <diagram id="C5RBs43oDa-KdzZeNtuy" name="Page-1">
    <mxGraphModel dx="1395" dy="643" grid="1" gridSize="10" guides="1" tooltips="1" connect="1" arrows="1" fold="1" page="1" pageScale="1" pageWidth="827" pageHeight="1169" math="0" shadow="0">
      <root>
        <mxCell id="WIyWlLk6GJQsqaUBKTNV-0" />
        <mxCell id="WIyWlLk6GJQsqaUBKTNV-1" parent="WIyWlLk6GJQsqaUBKTNV-0" />
        <mxCell id="q-3t2ACMC0t-WwhDIU3P-2" value="" style="edgeStyle=orthogonalEdgeStyle;rounded=0;orthogonalLoop=1;jettySize=auto;html=1;" edge="1" parent="WIyWlLk6GJQsqaUBKTNV-1" source="q-3t2ACMC0t-WwhDIU3P-0" target="q-3t2ACMC0t-WwhDIU3P-1">
          <mxGeometry relative="1" as="geometry" />
        </mxCell>
        <mxCell id="q-3t2ACMC0t-WwhDIU3P-0" value="Úvodní stránka localhost" style="rounded=1;whiteSpace=wrap;html=1;" vertex="1" parent="WIyWlLk6GJQsqaUBKTNV-1">
          <mxGeometry x="280" y="80" width="120" height="60" as="geometry" />
        </mxCell>
        <mxCell id="q-3t2ACMC0t-WwhDIU3P-4" value="" style="edgeStyle=orthogonalEdgeStyle;rounded=0;orthogonalLoop=1;jettySize=auto;html=1;" edge="1" parent="WIyWlLk6GJQsqaUBKTNV-1" source="q-3t2ACMC0t-WwhDIU3P-1" target="q-3t2ACMC0t-WwhDIU3P-3">
          <mxGeometry relative="1" as="geometry" />
        </mxCell>
        <mxCell id="q-3t2ACMC0t-WwhDIU3P-6" value="" style="edgeStyle=orthogonalEdgeStyle;rounded=0;orthogonalLoop=1;jettySize=auto;html=1;" edge="1" parent="WIyWlLk6GJQsqaUBKTNV-1" source="q-3t2ACMC0t-WwhDIU3P-1" target="q-3t2ACMC0t-WwhDIU3P-5">
          <mxGeometry relative="1" as="geometry" />
        </mxCell>
        <mxCell id="q-3t2ACMC0t-WwhDIU3P-1" value="Zaregistrovaný uživatel?" style="rhombus;whiteSpace=wrap;html=1;rounded=1;" vertex="1" parent="WIyWlLk6GJQsqaUBKTNV-1">
          <mxGeometry x="275" y="170" width="130" height="130" as="geometry" />
        </mxCell>
        <mxCell id="q-3t2ACMC0t-WwhDIU3P-10" value="" style="edgeStyle=orthogonalEdgeStyle;rounded=0;orthogonalLoop=1;jettySize=auto;html=1;" edge="1" parent="WIyWlLk6GJQsqaUBKTNV-1" source="q-3t2ACMC0t-WwhDIU3P-3" target="q-3t2ACMC0t-WwhDIU3P-9">
          <mxGeometry relative="1" as="geometry" />
        </mxCell>
        <mxCell id="q-3t2ACMC0t-WwhDIU3P-3" value="Login" style="whiteSpace=wrap;html=1;rounded=1;" vertex="1" parent="WIyWlLk6GJQsqaUBKTNV-1">
          <mxGeometry x="120" y="212.5" width="70" height="45" as="geometry" />
        </mxCell>
        <mxCell id="q-3t2ACMC0t-WwhDIU3P-12" value="" style="edgeStyle=orthogonalEdgeStyle;rounded=0;orthogonalLoop=1;jettySize=auto;html=1;" edge="1" parent="WIyWlLk6GJQsqaUBKTNV-1" source="q-3t2ACMC0t-WwhDIU3P-5" target="q-3t2ACMC0t-WwhDIU3P-11">
          <mxGeometry relative="1" as="geometry" />
        </mxCell>
        <mxCell id="q-3t2ACMC0t-WwhDIU3P-5" value="Register" style="whiteSpace=wrap;html=1;rounded=1;" vertex="1" parent="WIyWlLk6GJQsqaUBKTNV-1">
          <mxGeometry x="490" y="207.5" width="70" height="55" as="geometry" />
        </mxCell>
        <mxCell id="q-3t2ACMC0t-WwhDIU3P-7" value="Ano" style="text;html=1;align=center;verticalAlign=middle;whiteSpace=wrap;rounded=0;" vertex="1" parent="WIyWlLk6GJQsqaUBKTNV-1">
          <mxGeometry x="210" y="207.5" width="60" height="30" as="geometry" />
        </mxCell>
        <mxCell id="q-3t2ACMC0t-WwhDIU3P-8" value="Ne" style="text;html=1;align=center;verticalAlign=middle;whiteSpace=wrap;rounded=0;" vertex="1" parent="WIyWlLk6GJQsqaUBKTNV-1">
          <mxGeometry x="405" y="207.5" width="60" height="30" as="geometry" />
        </mxCell>
        <mxCell id="q-3t2ACMC0t-WwhDIU3P-13" style="edgeStyle=orthogonalEdgeStyle;rounded=0;orthogonalLoop=1;jettySize=auto;html=1;exitX=0;exitY=0.5;exitDx=0;exitDy=0;entryX=0;entryY=0.5;entryDx=0;entryDy=0;" edge="1" parent="WIyWlLk6GJQsqaUBKTNV-1" source="q-3t2ACMC0t-WwhDIU3P-9" target="q-3t2ACMC0t-WwhDIU3P-3">
          <mxGeometry relative="1" as="geometry">
            <Array as="points">
              <mxPoint x="70" y="360" />
              <mxPoint x="70" y="235" />
            </Array>
          </mxGeometry>
        </mxCell>
        <mxCell id="q-3t2ACMC0t-WwhDIU3P-16" value="" style="edgeStyle=orthogonalEdgeStyle;rounded=0;orthogonalLoop=1;jettySize=auto;html=1;" edge="1" parent="WIyWlLk6GJQsqaUBKTNV-1" source="q-3t2ACMC0t-WwhDIU3P-9" target="q-3t2ACMC0t-WwhDIU3P-15">
          <mxGeometry relative="1" as="geometry" />
        </mxCell>
        <mxCell id="q-3t2ACMC0t-WwhDIU3P-9" value="Úspěšný login?" style="rhombus;whiteSpace=wrap;html=1;rounded=1;" vertex="1" parent="WIyWlLk6GJQsqaUBKTNV-1">
          <mxGeometry x="115" y="320" width="80" height="80" as="geometry" />
        </mxCell>
        <mxCell id="q-3t2ACMC0t-WwhDIU3P-19" style="edgeStyle=orthogonalEdgeStyle;rounded=0;orthogonalLoop=1;jettySize=auto;html=1;exitX=1;exitY=0.5;exitDx=0;exitDy=0;entryX=1;entryY=0.5;entryDx=0;entryDy=0;" edge="1" parent="WIyWlLk6GJQsqaUBKTNV-1" source="q-3t2ACMC0t-WwhDIU3P-11" target="q-3t2ACMC0t-WwhDIU3P-5">
          <mxGeometry relative="1" as="geometry">
            <Array as="points">
              <mxPoint x="600" y="330" />
              <mxPoint x="600" y="235" />
            </Array>
          </mxGeometry>
        </mxCell>
        <mxCell id="q-3t2ACMC0t-WwhDIU3P-29" style="edgeStyle=orthogonalEdgeStyle;rounded=0;orthogonalLoop=1;jettySize=auto;html=1;exitX=0.5;exitY=1;exitDx=0;exitDy=0;entryX=0.5;entryY=0;entryDx=0;entryDy=0;" edge="1" parent="WIyWlLk6GJQsqaUBKTNV-1" source="q-3t2ACMC0t-WwhDIU3P-11" target="q-3t2ACMC0t-WwhDIU3P-22">
          <mxGeometry relative="1" as="geometry" />
        </mxCell>
        <mxCell id="q-3t2ACMC0t-WwhDIU3P-11" value="Úspěšný register?" style="rhombus;whiteSpace=wrap;html=1;rounded=1;" vertex="1" parent="WIyWlLk6GJQsqaUBKTNV-1">
          <mxGeometry x="485" y="290" width="80" height="80" as="geometry" />
        </mxCell>
        <mxCell id="q-3t2ACMC0t-WwhDIU3P-14" value="Ne" style="text;html=1;align=center;verticalAlign=middle;whiteSpace=wrap;rounded=0;" vertex="1" parent="WIyWlLk6GJQsqaUBKTNV-1">
          <mxGeometry x="70" y="330" width="60" height="30" as="geometry" />
        </mxCell>
        <mxCell id="q-3t2ACMC0t-WwhDIU3P-15" value="Dashboard stránka pro práci se soubory" style="whiteSpace=wrap;html=1;rounded=1;" vertex="1" parent="WIyWlLk6GJQsqaUBKTNV-1">
          <mxGeometry x="280" y="400" width="120" height="60" as="geometry" />
        </mxCell>
        <mxCell id="q-3t2ACMC0t-WwhDIU3P-17" value="Ano" style="text;html=1;align=center;verticalAlign=middle;whiteSpace=wrap;rounded=0;" vertex="1" parent="WIyWlLk6GJQsqaUBKTNV-1">
          <mxGeometry x="180" y="330" width="60" height="30" as="geometry" />
        </mxCell>
        <mxCell id="q-3t2ACMC0t-WwhDIU3P-20" value="Ne" style="text;html=1;align=center;verticalAlign=middle;whiteSpace=wrap;rounded=0;" vertex="1" parent="WIyWlLk6GJQsqaUBKTNV-1">
          <mxGeometry x="550" y="310" width="60" height="30" as="geometry" />
        </mxCell>
        <mxCell id="q-3t2ACMC0t-WwhDIU3P-21" value="" style="edgeStyle=orthogonalEdgeStyle;rounded=0;orthogonalLoop=1;jettySize=auto;html=1;" edge="1" parent="WIyWlLk6GJQsqaUBKTNV-1" source="q-3t2ACMC0t-WwhDIU3P-22" target="q-3t2ACMC0t-WwhDIU3P-25">
          <mxGeometry relative="1" as="geometry" />
        </mxCell>
        <mxCell id="q-3t2ACMC0t-WwhDIU3P-22" value="Login" style="whiteSpace=wrap;html=1;rounded=1;" vertex="1" parent="WIyWlLk6GJQsqaUBKTNV-1">
          <mxGeometry x="490" y="400" width="70" height="45" as="geometry" />
        </mxCell>
        <mxCell id="q-3t2ACMC0t-WwhDIU3P-30" style="edgeStyle=orthogonalEdgeStyle;rounded=0;orthogonalLoop=1;jettySize=auto;html=1;exitX=1;exitY=0.5;exitDx=0;exitDy=0;entryX=1;entryY=0.5;entryDx=0;entryDy=0;" edge="1" parent="WIyWlLk6GJQsqaUBKTNV-1" source="q-3t2ACMC0t-WwhDIU3P-25" target="q-3t2ACMC0t-WwhDIU3P-22">
          <mxGeometry relative="1" as="geometry">
            <Array as="points">
              <mxPoint x="630" y="520" />
              <mxPoint x="630" y="423" />
              <mxPoint x="560" y="423" />
            </Array>
          </mxGeometry>
        </mxCell>
        <mxCell id="q-3t2ACMC0t-WwhDIU3P-31" style="edgeStyle=orthogonalEdgeStyle;rounded=0;orthogonalLoop=1;jettySize=auto;html=1;exitX=0;exitY=0.5;exitDx=0;exitDy=0;entryX=1;entryY=0.5;entryDx=0;entryDy=0;" edge="1" parent="WIyWlLk6GJQsqaUBKTNV-1" source="q-3t2ACMC0t-WwhDIU3P-25" target="q-3t2ACMC0t-WwhDIU3P-15">
          <mxGeometry relative="1" as="geometry" />
        </mxCell>
        <mxCell id="q-3t2ACMC0t-WwhDIU3P-25" value="Úspěšný login?" style="rhombus;whiteSpace=wrap;html=1;rounded=1;" vertex="1" parent="WIyWlLk6GJQsqaUBKTNV-1">
          <mxGeometry x="485" y="480" width="80" height="80" as="geometry" />
        </mxCell>
        <mxCell id="q-3t2ACMC0t-WwhDIU3P-26" value="Ne" style="text;html=1;align=center;verticalAlign=middle;whiteSpace=wrap;rounded=0;" vertex="1" parent="WIyWlLk6GJQsqaUBKTNV-1">
          <mxGeometry x="550" y="500" width="60" height="30" as="geometry" />
        </mxCell>
        <mxCell id="q-3t2ACMC0t-WwhDIU3P-28" value="Ano" style="text;html=1;align=center;verticalAlign=middle;whiteSpace=wrap;rounded=0;" vertex="1" parent="WIyWlLk6GJQsqaUBKTNV-1">
          <mxGeometry x="440" y="490" width="60" height="30" as="geometry" />
        </mxCell>
        <mxCell id="q-3t2ACMC0t-WwhDIU3P-34" value="Ano" style="text;html=1;align=center;verticalAlign=middle;whiteSpace=wrap;rounded=0;" vertex="1" parent="WIyWlLk6GJQsqaUBKTNV-1">
          <mxGeometry x="520" y="370" width="60" height="30" as="geometry" />
        </mxCell>
      </root>
    </mxGraphModel>
  </diagram>
</mxfile>
